<svg width="21" height="21" viewBox="0 0 21 21" fill="none" xmlns="http://www.w3.org/2000/svg">
<path fill-rule="evenodd" clip-rule="evenodd" d="M11.0116 1.17554C10.7107 0.941487 10.2893 0.941487 9.98834 1.17554L2.48834 7.00887C2.28535 7.16675 2.16663 7.40951 2.16663 7.66667V16.8333C2.16663 17.4964 2.43002 18.1323 2.89886 18.6011C3.3677 19.0699 4.00358 19.3333 4.66663 19.3333H16.3333C16.9963 19.3333 17.6322 19.0699 18.1011 18.6011C18.5699 18.1323 18.8333 17.4964 18.8333 16.8333V7.66667C18.8333 7.40951 18.7146 7.16675 18.5116 7.00887L11.0116 1.17554ZM13.8333 17.6667H16.3333C16.5543 17.6667 16.7663 17.5789 16.9225 17.4226C17.0788 17.2663 17.1666 17.0543 17.1666 16.8333V8.07424L10.5 2.88905L3.83329 8.07424V16.8333C3.83329 17.0543 3.92109 17.2663 4.07737 17.4226C4.23365 17.5789 4.44561 17.6667 4.66663 17.6667H7.16663V10.1667C7.16663 9.70643 7.53972 9.33333 7.99996 9.33333H13C13.4602 9.33333 13.8333 9.70643 13.8333 10.1667V17.6667ZM8.83329 17.6667V11H12.1666V17.6667H8.83329Z" fill="#B1B2B2"/>
</svg>
