<svg width="21" height="21" viewBox="0 0 21 21" fill="none" xmlns="http://www.w3.org/2000/svg">
<g clip-path="url(#clip0_102_838)">
<path d="M10.5 11.7143C12.4725 11.7143 14.0714 10.1153 14.0714 8.14284C14.0714 6.17039 12.4725 4.57141 10.5 4.57141C8.52757 4.57141 6.92859 6.17039 6.92859 8.14284C6.92859 10.1153 8.52757 11.7143 10.5 11.7143Z" stroke="#B1B2B2" stroke-width="1.71429" stroke-linecap="round" stroke-linejoin="round"/>
<path d="M4.40002 17.2858C5.03751 16.2393 5.93346 15.3745 7.00175 14.7744C8.07003 14.1743 9.27473 13.8591 10.5 13.8591C11.7253 13.8591 12.93 14.1743 13.9983 14.7744C15.0666 15.3745 15.9625 16.2393 16.6 17.2858" stroke="#B1B2B2" stroke-width="1.71429" stroke-linecap="round" stroke-linejoin="round"/>
<path d="M10.5 19.5714C15.6284 19.5714 19.7857 15.4141 19.7857 10.2857C19.7857 5.15736 15.6284 1 10.5 1C5.37165 1 1.21429 5.15736 1.21429 10.2857C1.21429 15.4141 5.37165 19.5714 10.5 19.5714Z" stroke="#B1B2B2" stroke-width="1.71429" stroke-linecap="round" stroke-linejoin="round"/>
</g>
<defs>
<clipPath id="clip0_102_838">
<rect width="20.5714" height="20.5714" fill="white" transform="translate(0.214294)"/>
</clipPath>
</defs>
</svg>
